<svg xmlns="http://www.w3.org/2000/svg" viewBox="0 0 593.72 593.72"><defs><style>.cls-1{fill:#671C93<!--#932fbc-->;}</style></defs><g id="Layer_2" data-name="Layer 2"><g id="Layer_1-2" data-name="Layer 1"><path class="cls-1" d="M506.77,87A296.86,296.86,0,1,0,87,506.77c.4.4.8.8,1.21,1.19a294.8,294.8,0,0,0,136.76,77,300.78,300.78,0,0,0,143.88,0l3-.76A297,297,0,0,0,506.77,87ZM221.2,198.76s-1.09-67,8.72-93.17c0,0,6.85,40.87,28.89,56C244.46,168.7,221.2,198.76,221.2,198.76Zm66,105.6c.42-.71,19.91-32.84,39.34-4.81C325.91,299,309.84,284.08,287.17,304.36Zm46.15,55.84c2.47-.09,4.79-2.1,7.3-1.22,8.71,4.54,13.8,1.9,17.61-6.83-.54,4.22-2.32,8.76-6.51,10.75-3.73,1.78-8,.89-11.52-.85a2.07,2.07,0,0,0-.91-.3,7.6,7.6,0,0,0-2.4.65,14.27,14.27,0,0,1-3.35.62c-7.57.64-11.5-7.27-11.19-13.79C323.8,354.4,327.06,361.06,333.32,360.2Zm.29,51.16c-8.79,18.06-18.52,12.5-18.52,12.5A48,48,0,0,0,333.61,411.36Zm-1.27,8.86c-.1.17-.21.34-.32.51l0,0c-.17.27-.34.52-.51.77a25.2,25.2,0,0,1-1.53,2h0c-.33.41-.67.79-1,1.15-.16.18-.32.35-.5.52s-.33.33-.5.49l-.76.66a5.48,5.48,0,0,1-.48.39l-.61.45c-.2.14-.4.28-.6.4a14.21,14.21,0,0,1-1.87,1l-.4.15c-.29.11-.58.2-.85.28a9.7,9.7,0,0,1-3.77.31,6.12,6.12,0,0,1-.64-.1l-.42-.1-.38-.1a6.39,6.39,0,0,1-1.09-.43h0q1.13-.44,2.19-.9c.71-.32,1.39-.64,2.06-1l1.94-1c1.13-.62,2.19-1.26,3.17-1.9l1-.64c.42-.28.82-.57,1.21-.84l.55-.41c.55-.41,1.07-.82,1.55-1.21l.3-.24.17-.15.27-.22c.82-.69,1.53-1.33,2.11-1.88h0c.89-.86,1.5-1.52,1.8-1.86l0-.05h0l.12-.13s0,0,0,0h0l0,0c-.55,1.15-1.12,2.2-1.69,3.16C332.72,419.61,332.53,419.92,332.34,420.22Zm31.11-5.82c0,.28,0,.57,0,.87s0,.77-.05,1.16,0,.8-.08,1.21c0,.2,0,.4-.05.61-.05.61-.12,1.24-.21,1.88s-.18,1.28-.3,1.93c-.07.43-.15.86-.25,1.3-.05.22-.09.44-.14.66,0,0,0,0,0,0-.06.21-.11.42-.16.63-.11.44-.23.88-.35,1.32-.06.22-.12.44-.2.66s-.21.66-.32,1-.23.65-.35,1c-.33.87-.7,1.74-1.12,2.59a5.46,5.46,0,0,1-.32.64c-.21.42-.44.84-.69,1.25a6.75,6.75,0,0,1-.37.62,13.31,13.31,0,0,1-.8,1.21c-.14.2-.28.4-.43.59a4.85,4.85,0,0,1-.45.59c-.3.38-.62.76-1,1.14a5.2,5.2,0,0,1-.51.55l-.53.54-.56.53q-.56.53-1.17,1t-1.26,1a16,16,0,0,1-1.36.9c-.7.43-1.44.84-2.22,1.22a8.08,8.08,0,0,1-.79.37,31.34,31.34,0,0,1-3.43,1.29c-.47.14-.94.28-1.43.4s-.95.24-1.44.34c-.66.14-1.35.27-2.05.38a41.16,41.16,0,0,1-4.5.47h0l.2-.08L335,446l.13-.06.31-.13a.09.09,0,0,1,.06,0l.06,0,.63-.31,0,0,0,0c.4-.2.87-.44,1.39-.74l.84-.48.13-.08,1.17-.72.62-.4.84-.57.21-.15.33-.23q.93-.66,1.92-1.44l.45-.36h0l.5-.42.08-.06v0h.05l.08-.07c.45-.37.9-.77,1.35-1.18.16-.14.32-.28.47-.43h0c.62-.57,1.24-1.17,1.85-1.81q.31-.32.63-.66h0l0,0c.29-.3.58-.61.86-.94s.35-.39.52-.6.46-.52.67-.79.45-.54.67-.82l.66-.85a49.85,49.85,0,0,0,4.77-7.62c.34-.68.67-1.37,1-2.09a53.81,53.81,0,0,0,2.9-8.19c.11-.42.22-.85.32-1.28s.21-.88.3-1.32c.05-.22.1-.44.14-.66,0-.06,0-.13,0-.2.05-.25.1-.52.15-.79,0-.08,0-.16,0-.25l0-.17a1.55,1.55,0,0,1,0-.21.25.25,0,0,1,0-.08l.06-.36c.16-.93.29-1.88.41-2.85v0h0c0,.06,0,.2.07.4s0,.24.06.39,0,.26.06.4.05.4.08.64A52.89,52.89,0,0,1,363.45,414.4Zm34-103.29c-.52-.77-12.07-17.17-34.21-5.34C364.1,305,386.37,284.73,397.46,311.11ZM380.34,165.67S400.77,143.81,404,132.1c5.46,10.11,0,54.19,0,54.19A74,74,0,0,0,380.34,165.67Zm14.18,320.79q-.4,1.62-.81,3.18c-.14.53-.27,1-.41,1.56h0c-.41,1.56-.83,3.08-1.23,4.56l-.76,2.69c-.66,2.3-1.3,4.47-1.9,6.47l-.06.22-.3,1c-.15.47-.29.94-.42,1.39-.26.85-.52,1.67-.77,2.45-.33,1-.63,2-.91,2.84-.11.33-.21.65-.31,1-.16.52-.33,1-.49,1.47q-.07.24-.15.45c-.06.2-.13.39-.19.57s-.06.18-.08.26c-.15.47-.3.89-.43,1.26-.06.19-.12.37-.18.53s-.1.31-.15.44l-.16.47c-.14.41-.22.62-.22.62h0l-2.77-6h0a1.11,1.11,0,0,0,.05-.13c0-.08.06-.18.11-.32l0-.05v0s0,0,0-.06a.08.08,0,0,1,0,0h0a.88.88,0,0,1,.05-.15,1.54,1.54,0,0,1,.05-.17l.06-.17a.69.69,0,0,1,.05-.13c0-.08.05-.17.08-.26L380.83,509s5.59-15.18,3.92-28.45c0,0,0,0,0,0-.12-.41-.25-.82-.39-1.22a18.4,18.4,0,0,0-12.19-12.1l-1.11-.34-.16,0c-.38-.1-.78-.2-1.18-.28s-.69-.15-1-.21l-.63-.1-.52-.07-.53-.07h0l.28-.23.1-.09.5-.44.85-.77.22-.21.09-.08a2.66,2.66,0,0,1,.24-.23l.09-.08.16-.16.11-.1v0l.07-.06.28-.27.06-.07,0,0a.57.57,0,0,1,.11-.11l.15-.15.13-.13a2.18,2.18,0,0,1,.22-.21,1.8,1.8,0,0,1,.19-.2l.08-.09a26.89,26.89,0,0,0-4.94-1s24.53-19.91,29.63-55.09a35.91,35.91,0,0,1,4.53,13.41,0,0,0,0,0,0,0h0v0c.08.34.16.69.25,1,.13.56.25,1.12.36,1.7l0,.14c.11.59.22,1.18.31,1.79s.19,1.26.27,1.9a.78.78,0,0,1,0,.14c.07.6.14,1.2.2,1.81s.11,1.22.15,1.84a.81.81,0,0,1,0,.16c0,.53.07,1.07.1,1.62l0,.8c0,.53,0,1.05.06,1.58,0,.75,0,1.5,0,2.26s0,1.61,0,2.43v.1c0,.68,0,1.36-.07,2.05,0,.14,0,.28,0,.42,0,1.1-.11,2.22-.19,3.35l-.15,2-.12,1.36-.18,1.9q-.17,1.72-.39,3.48a0,0,0,0,0,0,0c-.14,1.16-.3,2.34-.47,3.51-.24,1.77-.52,3.54-.81,5.31l-.3,1.77c-.2,1.18-.41,2.36-.64,3.54-.88,4.7-1.88,9.34-2.93,13.8C395.33,483.2,394.93,484.85,394.52,486.46Zm3,46.71c12.43-18.11,24.6-32.5,24.6-32.5,72.58-84.31,2.09-202.33,2.09-202.33,5.71-12,1.81-43.17,1.67-44.32h0a36.44,36.44,0,0,1,2.43,5.82c.1.28.19.57.29.87.3,1,.6,2,.9,3.14.2.76.4,1.56.58,2.41l.21,1c.13.66.27,1.35.39,2.06q.09.52.18,1.08h0a88.18,88.18,0,0,1,1,15.42v.12c0,1,0,2-.11,3.09,0,.24,0,.49,0,.74,0,.44,0,.88-.07,1.32a76.25,76.25,0,0,0,2.42-29.45l0-.3c-.09-.88-.19-1.76-.31-2.64,0-.13,0-.26-.05-.39-.11-.85-.23-1.7-.37-2.55-.48-3-1.08-6.05-1.79-9-.27-1.1-.54-2.19-.83-3.27-.15-.57-.31-1.15-.47-1.72-.6-2.12-1.24-4.19-1.91-6.23a168.88,168.88,0,0,0-6.55-16.64c-.41-.92-.83-1.82-1.24-2.69a174.45,174.45,0,0,0-12.76-22.66h0c1.78-10.62,2.86-21,3.5-30.51l.12-1.89q.21-3.48.34-6.78c.47-11.66.3-21.58,0-28.49,0-.62-.06-1.23-.08-1.81-.05-.92-.09-1.77-.13-2.55,0-.54-.06-1-.09-1.52s-.06-.91-.09-1.31c-.05-.81-.1-1.47-.14-2,0-.09,0-.18,0-.26a.28.28,0,0,1,0-.09c0-.24,0-.44,0-.59a.66.66,0,0,1,0-.13.34.34,0,0,1,0-.09.11.11,0,0,0,0-.06c-17.66,23.67-45.56,42.38-45.56,42.38h0a84,84,0,0,0-12.06-5c-18.09-5.9-37.71-6.18-53.89-4.67l-2.31.23c-2.69.28-5.28.61-7.74,1l-2.05.31-1,.16-2,.33h0l-1.88.33c-.93.16-1.84.33-2.7.51l-.86.17-1.65.33-.79.17h0l-1.52.33h0l-2.1.48h0l-1.6.38h0l-.28.07-1.23.31h0l-.3.08-.13,0-.3.08-.16,0-.16,0-.07,0-.15,0-.18.05-.32.08a0,0,0,0,0,0,0l-.37.1-.32.09h0L267,154l-.33.09h0l-.68.19-.09,0-.12,0-.18.06-.17.05-.14,0-.12,0-.18,0-.1,0h0c-.52-.6-1.05-1.22-1.56-1.87s-1-1.29-1.54-2a106,106,0,0,1-6.24-9.38q-.45-.75-.9-1.53c-.56-1-1.11-2-1.66-2.94s-.91-1.68-1.36-2.53a247.92,247.92,0,0,1-15-35.31c-.09-.24-.16-.48-.24-.71l-.75-2.3c-.55-1.74-1-3.34-1.43-4.76l-.12-.43c-.17-.63-.33-1.23-.46-1.78-.1-.33-.17-.65-.24-1s-.15-.62-.2-.9c0-.08,0-.16-.05-.23-.08-.37-.14-.7-.19-1h0c0-.1,0-.19,0-.28a20.46,20.46,0,0,0-1.64,2c-.13.16-.25.33-.37.5s-.35.48-.52.74-.41.61-.61.94-.34.54-.51.83-.47.79-.7,1.2l-.59,1.1c-.22.42-.44.86-.66,1.31h0l-.39.82c-.64,1.38-1.28,2.84-1.9,4.38-.24.62-.49,1.25-.73,1.89-.11.29-.22.58-.32.87l-.63,1.75c-.11.3-.22.6-.31.91-.41,1.2-.81,2.44-1.21,3.7,0,0,0,0,0,0-.39,1.26-.78,2.54-1.16,3.85a0,0,0,0,0,0,0c-.19.65-.37,1.31-.56,2h0c-.18.67-.36,1.33-.55,2-.1.34-.19.69-.27,1-.17.67-.35,1.36-.53,2-.09.35-.18.7-.26,1.05l-.51,2.07c-.09.35-.17.71-.25,1.06-.33,1.4-.65,2.81-1,4.23,0,0,0,0,0,0-.16.7-.31,1.41-.47,2.12h0c-.72,3.33-1.39,6.69-2,10-.32,1.65-.62,3.3-.91,4.94s-.57,3.24-.84,4.84l-.3,1.78c-.19,1.18-.38,2.34-.56,3.49s-.36,2.28-.53,3.39l-.12.83c-.05.27-.09.54-.13.81h0c-.16,1.09-.32,2.15-.47,3.19-.06.39-.11.78-.17,1.16,0,.13,0,.26,0,.39s-.08.5-.11.74c-.11.75-.21,1.49-.31,2.2h0c-.13,1-.25,1.89-.37,2.78,0,.29-.07.57-.11.84s-.08.55-.11.83c0,.1,0,.21,0,.31s0,.32-.07.48l-.06.45c0,.11,0,.22,0,.33,0,.3-.07.59-.11.87a1.49,1.49,0,0,1,0,.21l0,.22c0,.21-.05.41-.08.62s-.05.41-.08.61,0,.39-.07.58l-.09.74-.06.49-.06.47h0q-.08.67-.15,1.29c0,.12,0,.24,0,.36l0,.23q-.07.7-.15,1.29V182c0,.22,0,.43-.07.62s-.06.57-.09.8a1.64,1.64,0,0,1,0,.23l0,.2a1.11,1.11,0,0,1,0,.19h0c0,.46-.07.71-.07.71-29,28.62-30.72,74.88-30.72,74.88-.09,1.4-.19,3-.3,4.79h0c0,.51-.06,1-.09,1.57h0c0,.81-.09,1.65-.14,2.52,0,.3,0,.6-.05.9-.07,1.19-.13,2.43-.2,3.73,0,.65-.07,1.31-.1,2s-.07,1.34-.11,2v0c-.07,1.38-.15,2.81-.22,4.27v0c0,1.09-.11,2.21-.17,3.35-.09,1.54-.17,3.1-.24,4.7s-.16,3.2-.25,4.85v0c-.09,1.65-.17,3.32-.26,5h0c-.06,1.27-.13,2.55-.2,3.84v0c-.21,4-.43,8.13-.66,12.28-.06,1.19-.13,2.38-.19,3.57,0,.6-.07,1.19-.1,1.79-.1,1.79-.2,3.58-.31,5.37l-.21,3.58-.21,3.56c-.15,2.37-.3,4.73-.44,7.06-.11,1.75-.22,3.48-.34,5.19-.07,1.15-.15,2.28-.23,3.41-.18,2.67-.37,5.29-.56,7.83-.1,1.27-.19,2.52-.29,3.76q-.07.93-.15,1.83-.28,3.65-.6,7l-.15,1.66c-.1,1.08-.2,2.15-.31,3.18s-.2,2-.31,3c-.14,1.26-.28,2.46-.41,3.6,0,.05,0,.09,0,.14-.07.61-.15,1.21-.23,1.78s-.11.89-.17,1.31l-.12.84-.09.56c0,.24-.06.48-.11.72s-.06.43-.09.64-.12.72-.18,1.06c0,.1,0,.2,0,.3s0,.16-.05.24l-.09.52c-.09.51-.19,1-.29,1.43a1.62,1.62,0,0,0,0,.19c0,.07,0,.13,0,.19s0,0,0,.06l0,.15a.36.36,0,0,1,0,.1c-.09.39-.19.74-.28,1.07v0a5.07,5.07,0,0,1-.14.5c-.07.21-.14.4-.2.57-2.23,5.95-7.39,14.29-12.27,21.48-.5.72-1,1.43-1.45,2.13s-.94,1.36-1.41,2h0c-.45.65-.9,1.29-1.35,1.9h0l-.68.95c-.46.66-.92,1.29-1.35,1.88l-.42.58a.64.64,0,0,0-.1.13l-.33.46,0,0-.11.15c-.08.11-.16.21-.23.32l-.06.07-.27.37h0l-.21.27-.11.15c-.1.14-.19.28-.29.41l-.29.38-.44.59-.39.52-.13.17c-.07.09-.13.18-.2.26-.18.25-.34.45-.46.61h0l-.11.14-.09.12a1,1,0,0,1-.11.15v0s-13.85.4-21.48,8.43c-9.64,11.45-7.5,33.07-7.5,33.07a22.31,22.31,0,0,0-3.8,3A256,256,0,0,1,40,296.86C40,155.23,155.23,40,296.86,40S553.72,155.23,553.72,296.86C553.72,402.79,489.26,494,397.51,533.17ZM407.28,325s40.9,56.33,17.13,130C424.63,453,433.32,377.15,407.28,325Z"/></g></g></svg>
