<svg class="catpaw-2" xmlns="http://www.w3.org/2000/svg" viewBox="0 0 570.55 564.3"><g id="Layer_2" data-name="Layer 2"><g id="Layer_1-2" data-name="Layer 1"><g id="Layer_2-2" data-name="Layer 2"><g id="Layer_1-2-2" data-name="Layer 1-2"><path d="M463.42,385.74c28.24,23.83,24.13,75.09-9.08,114.5s-83.12,52-111.35,28.22S318.82,453.35,352.07,414,435.18,361.91,463.42,385.74Z"/><path d="M229.36,157.68c9.1,10.78,21.79,17.36,36.33,19.86-25.41,46.56-26.1,96.28,2.46,124.84s78.3,27.88,124.88,2.47c2.5,14.56,9.08,27.26,19.88,36.37,31.79,26.84,88.17,12.35,125.88-32.35s42.53-102.69,10.76-129.56C534.14,166.31,513,163,491,168.13c2.57-26.56-4.1-50.76-20.94-67.6S429,77,402.47,79.59c5.12-22,1.8-43.16-11.19-58.55-26.84-31.8-84.83-27-129.53,10.71S202.55,125.87,229.36,157.68ZM420,150.63c-.25,71.46-1.82,84.53-20.84,97.47a35.62,35.62,0,0,1-24.56,6.09c-25-3.34-26.84-31.31-26.84-31.31S319.71,221,316.4,196a35.48,35.48,0,0,1,6.08-24.57C335.41,152.44,348.48,150.87,420,150.63Z"/><path d="M75.32,110.79c42.86-28.67,94.26-27,114.8,3.7S192.55,193.31,149.7,222,55.44,249,34.89,218.3,32.45,139.45,75.32,110.79Z"/><path d="M289,389.7c31.87,26.88,27.28,84.73-10.25,129.19s-93.77,58.72-125.63,31.83S125.81,466,163.33,421.53,257.11,362.81,289,389.7Z"/><path d="M50.15,288.43c46.4-35.12,104.4-36.53,129.56-3.26s7.84,88.66-38.57,123.73S36.72,445.43,11.55,412.16,3.72,323.5,50.15,288.43Z"/></g></g></g></g></svg>
