<svg class="catpaw-1" xmlns="http://www.w3.org/2000/svg" viewBox="0 0 570.51 564.28"><g id="Layer_2" data-name="Layer 2"><g id="Layer_1-2" data-name="Layer 1"><path d="M107.13,178.57C78.89,154.74,83,103.48,116.21,64.07s83.12-52,111.35-28.22,24.17,75.11-9.08,114.51S135.37,202.4,107.13,178.57Z"/><path d="M341.19,406.63c-9.1-10.78-21.79-17.36-36.33-19.86,25.41-46.56,26.1-96.28-2.46-124.84s-78.3-27.88-124.88-2.47c-2.5-14.56-9.08-27.26-19.88-36.37-31.79-26.84-88.17-12.35-125.88,32.35S-10.77,358.13,21,385c15.41,13,36.58,16.31,58.6,11.18-2.57,26.56,4.1,50.76,20.94,67.6s41,23.49,67.54,20.94c-5.12,22-1.8,43.16,11.19,58.55,26.84,31.8,84.83,27,129.53-10.71S368,438.44,341.19,406.63ZM150.6,413.68c.25-71.46,1.82-84.53,20.84-97.47A35.58,35.58,0,0,1,196,310.12c25,3.34,26.84,31.31,26.84,31.31s28,1.86,31.31,26.84a35.49,35.49,0,0,1-6.08,24.57C235.14,411.87,222.07,413.44,150.6,413.68Z"/><path d="M495.23,453.52c-42.86,28.67-94.26,27-114.8-3.7S378,371,420.85,342.3s94.26-27,114.81,3.71S538.1,424.86,495.23,453.52Z"/><path d="M281.59,174.61c-31.87-26.88-27.28-84.73,10.25-129.19S385.61-13.3,417.47,13.59s27.27,84.73-10.25,129.19S313.44,201.5,281.59,174.61Z"/><path d="M520.4,275.88C474,311,416,312.41,390.84,279.14S383,190.48,429.41,155.41,533.83,118.88,559,152.15,566.83,240.81,520.4,275.88Z"/></g></g></svg>
